<svg xmlns="http://www.w3.org/2000/svg" viewBox="0 0 500 500"><g id="freepik--Background--inject-124"><path id="freepik--background--inject-124" d="M446.07,138.72C351.75,12.9,216.48-13.53,99.57,68.85,3,136.88-5.26,289.61,31.94,358.81,59.7,410.44,133.8,469,230.78,480.64c115.78,13.95,167.81-13,206.23-45.46C510.36,373.13,507.58,220.78,446.07,138.72ZM145.19,465.85c-17.57-6.31-37.71-13.45-63.09-34.08a236.93,236.93,0,0,1-46.84-51.59c-7.28-11-11.3,35.9,30.59,68C116.28,486.84,162.85,472.19,145.19,465.85Z" style="fill:#263238"></path></g><g id="freepik--Window--inject-124"><g id="freepik--window-code--inject-124"><path d="M209.1,69.32V217.78a6.82,6.82,0,0,1-3.09,5.34l-105.6,60.93a2,2,0,0,1-1,.3,1.74,1.74,0,0,1-.39-.05,2.15,2.15,0,0,1-.27-.1l-.16-.09-.18-.12a1.22,1.22,0,0,1-.17-.15,2.33,2.33,0,0,1-.57-.81,3.91,3.91,0,0,1-.32-1.56V133.77a6.83,6.83,0,0,1,3.08-5.35L206,67.54a2.2,2.2,0,0,1,2.07-.26,1.17,1.17,0,0,1,.27.15l0,0a1,1,0,0,1,.2.2.48.48,0,0,1,.09.11.54.54,0,0,1,.1.16,1.59,1.59,0,0,1,.18.4.77.77,0,0,1,.08.27.07.07,0,0,1,0,.06,1.25,1.25,0,0,1,.05.29C209.09,69.06,209.1,69.19,209.1,69.32Z" style="fill:#455a64"></path><path d="M207.38,68.12a.63.63,0,0,1,.3.07l0,0h0l.05,0,.09.11h0l.07.11,0,0,0,0,.1.29v0l0,0v0a.2.2,0,0,1,0,.07,2.83,2.83,0,0,1,0,.3V217.78a5.82,5.82,0,0,1-2.59,4.47L99.92,283.18a1,1,0,0,1-.52.17h0l-.21,0-.05,0h0l-.15-.1h0l0,0,0,0a1.5,1.5,0,0,1-.33-.48,2.91,2.91,0,0,1-.23-1.15V133.77a5.81,5.81,0,0,1,2.58-4.48l105.6-60.88a1.78,1.78,0,0,1,.87-.29m0-1a2.83,2.83,0,0,0-1.37.42l-105.6,60.88a6.83,6.83,0,0,0-3.08,5.35v147.7a3.91,3.91,0,0,0,.32,1.56,2.33,2.33,0,0,0,.57.81,1.22,1.22,0,0,0,.17.15l.18.12.16.09a2.15,2.15,0,0,0,.27.1,1.74,1.74,0,0,0,.39.05h0a1.92,1.92,0,0,0,1-.3L206,223.12a6.82,6.82,0,0,0,3.09-5.34V69.32c0-.13,0-.26,0-.38a1.25,1.25,0,0,0-.05-.29.07.07,0,0,0,0-.06.77.77,0,0,0-.08-.27,1.59,1.59,0,0,0-.18-.4.54.54,0,0,0-.1-.16.48.48,0,0,0-.09-.11,1,1,0,0,0-.2-.2l0,0a1.17,1.17,0,0,0-.27-.15,1.63,1.63,0,0,0-.7-.16Z" style="fill:#455a64"></path><g style="opacity:0.8"><path d="M209.1,69.32V217.78a6.82,6.82,0,0,1-3.09,5.34l-105.6,60.93a2,2,0,0,1-1,.3,1.74,1.74,0,0,1-.39-.05,2.15,2.15,0,0,1-.27-.1l-.16-.09-.18-.12a1.22,1.22,0,0,1-.17-.15,2.33,2.33,0,0,1-.57-.81,3.91,3.91,0,0,1-.32-1.56V133.77a6.83,6.83,0,0,1,3.08-5.35L206,67.54a2.2,2.2,0,0,1,2.07-.26,1.17,1.17,0,0,1,.27.15l0,0a1,1,0,0,1,.2.2.48.48,0,0,1,.09.11.54.54,0,0,1,.1.16,1.59,1.59,0,0,1,.18.4.77.77,0,0,1,.08.27.07.07,0,0,1,0,.06,1.25,1.25,0,0,1,.05.29C209.09,69.06,209.1,69.19,209.1,69.32Z" style="fill:#455a64"></path></g><path d="M208.08,67.28a2.2,2.2,0,0,0-2.07.26l-105.6,60.88a6.83,6.83,0,0,0-3.08,5.35v10.07l-3.94-2.3v-10a6.81,6.81,0,0,1,3.08-5.33l105.6-60.89a2.17,2.17,0,0,1,2.24-.18C204.87,65.47,207.43,66.93,208.08,67.28Z" style="fill:#25C2A0"></path><path d="M209.09,69.3c0-2-1.39-2.74-3.08-1.76l-105.6,60.89a6.81,6.81,0,0,0-3.08,5.33v10.09L209.09,79.42Z" style="fill:#25C2A0"></path><g style="opacity:0.4"><path d="M206,67.54,100.42,128.42a6.41,6.41,0,0,0-2.18,2.29l-3.91-2.27a6.19,6.19,0,0,1,2.14-2.25l105.6-60.88a2.17,2.17,0,0,1,2.24-.18c.55.34,3.11,1.79,3.76,2.14A2.24,2.24,0,0,0,206,67.54Z" style="fill:#fff"></path></g><path d="M93.39,141.55v-10a6.3,6.3,0,0,1,.94-3.09l3.92,2.26a6.27,6.27,0,0,0-.92,3.07v10.08Z" style="opacity:0.15"></path><path d="M190.52,80.78a4.58,4.58,0,0,0-1.74,3.69c0,1.48.78,2.23,1.74,1.67a4.6,4.6,0,0,0,1.74-3.69C192.26,81,191.48,80.22,190.52,80.78Z" style="fill:#455a64"></path><path d="M196.79,77.15a4.61,4.61,0,0,0-1.74,3.69c0,1.48.78,2.23,1.74,1.67a4.58,4.58,0,0,0,1.74-3.68C198.53,77.35,197.75,76.6,196.79,77.15Z" style="fill:#455a64"></path><path d="M203.06,73.52a4.61,4.61,0,0,0-1.74,3.69c0,1.48.78,2.23,1.74,1.68a4.61,4.61,0,0,0,1.74-3.69C204.8,73.72,204,73,203.06,73.52Z" style="fill:#455a64"></path><path d="M98.46,284.06l-.38-.22-1-.54h0L96.6,283l0,0-.81-.47-.68-.38c-.18-.11-.32-.18-.38-.21a1.68,1.68,0,0,1-.53-.43,2.47,2.47,0,0,1-.42-.63,3.82,3.82,0,0,1-.35-1.62V141.54l3.94,2.3V281.47a4.63,4.63,0,0,0,.32,1.56,2.33,2.33,0,0,0,.57.81.5.5,0,0,0,.17.15Z" style="fill:#37474f"></path><path d="M104.9,152.22a1.15,1.15,0,0,1,.16-.57l2.22-4.59a.42.42,0,0,1,.1-.14l.05,0a.15.15,0,0,1,.18,0,.32.32,0,0,1,.07.23v1.54a1.6,1.6,0,0,1-.05.48,2,2,0,0,1-.15.42L106.31,152l1.17,1.07a.63.63,0,0,1,.15.24,1.16,1.16,0,0,1,.05.43v1.54a.7.7,0,0,1-.07.31.48.48,0,0,1-.18.21l-.05,0a.12.12,0,0,1-.1,0l-2.22-2a.46.46,0,0,1-.16-.4Z" style="fill:#25C2A0"></path><path d="M113,140.72a2.07,2.07,0,0,1,.17-.45.8.8,0,0,1,.32-.36l.84-.48a.12.12,0,0,1,.17,0,.28.28,0,0,1,.07.22.56.56,0,0,1,0,.17l-3.8,16.2a2,2,0,0,1-.16.44.79.79,0,0,1-.33.37l-.8.46a.15.15,0,0,1-.18,0,.32.32,0,0,1-.07-.23,1.28,1.28,0,0,1,0-.17Z" style="fill:#25C2A0"></path><path d="M118.89,145.29a1.18,1.18,0,0,1-.16.57l-2.21,4.59a.64.64,0,0,1-.1.14l-.06,0a.12.12,0,0,1-.17,0,.28.28,0,0,1-.08-.22v-1.54a2,2,0,0,1,0-.48,2.06,2.06,0,0,1,.16-.42l1.17-2.42-1.17-1.08a.57.57,0,0,1-.16-.23,1.43,1.43,0,0,1,0-.43v-1.54a.71.71,0,0,1,.08-.31.46.46,0,0,1,.17-.21l.06,0a.13.13,0,0,1,.1,0l2.21,2a.45.45,0,0,1,.16.39Z" style="fill:#25C2A0"></path><path d="M125.05,144.22a.18.18,0,0,1,.22,0,.37.37,0,0,1,.09.27v1.7a.88.88,0,0,1-.09.38.49.49,0,0,1-.22.26l-1,.61a.17.17,0,0,1-.22,0,.37.37,0,0,1-.09-.27v-1.7a.88.88,0,0,1,.09-.38.53.53,0,0,1,.22-.26Z" style="fill:#25C2A0"></path><path d="M128.55,142.2a.18.18,0,0,1,.22,0,.38.38,0,0,1,.09.28v1.69a.85.85,0,0,1-.09.38.59.59,0,0,1-.22.26l-1,.61a.17.17,0,0,1-.22,0,.35.35,0,0,1-.09-.27v-1.7a.88.88,0,0,1,.09-.38.49.49,0,0,1,.22-.26Z" style="fill:#25C2A0"></path><path d="M132.05,140.18a.17.17,0,0,1,.21,0,.38.38,0,0,1,.09.28v1.69a.85.85,0,0,1-.09.38.61.61,0,0,1-.21.27l-1.05.6a.15.15,0,0,1-.21,0,.34.34,0,0,1-.09-.27v-1.7a.88.88,0,0,1,.09-.38.57.57,0,0,1,.21-.26Z" style="fill:#25C2A0"></path><path d="M105.84,164.59l71.55-41.31c.6-.35,1.1-.1,1.1.56a2.35,2.35,0,0,1-1.1,1.81L105.84,167c-.61.35-1.1.1-1.1-.56A2.35,2.35,0,0,1,105.84,164.59Z" style="fill:#25C2A0"></path><path d="M122.28,183.58l71.55-41.31c.61-.35,1.1-.11,1.1.55a2.34,2.34,0,0,1-1.1,1.82L122.28,186c-.61.35-1.1.1-1.1-.55A2.34,2.34,0,0,1,122.28,183.58Z" style="fill:#f28f8f"></path><path d="M122.28,193.07l44.83-25.88c.61-.35,1.1-.1,1.1.56a2.35,2.35,0,0,1-1.1,1.82l-44.83,25.87c-.61.35-1.1.1-1.1-.55A2.34,2.34,0,0,1,122.28,193.07Z" style="fill:#f28f8f"></path><path d="M122.28,202.56l44.83-25.87c.61-.35,1.1-.1,1.1.55a2.34,2.34,0,0,1-1.1,1.82l-44.83,25.88c-.61.34-1.1.1-1.1-.56A2.35,2.35,0,0,1,122.28,202.56Z" style="fill:#f28f8f"></path><path d="M181.64,120.83,202.05,109c.61-.35,1.1-.1,1.1.55a2.34,2.34,0,0,1-1.1,1.82L181.64,123.2c-.61.35-1.1.1-1.1-.55A2.34,2.34,0,0,1,181.64,120.83Z" style="fill:#25C2A0"></path><path d="M123.47,258.92l53.92-31.23c.6-.35,1.1-.1,1.1.55a2.36,2.36,0,0,1-1.1,1.82L123.47,261.3c-.6.34-1.09.1-1.09-.56A2.37,2.37,0,0,1,123.47,258.92Z" style="fill:#25C2A0"></path><path d="M181.64,225.24l20.41-11.83c.61-.35,1.1-.11,1.1.55a2.34,2.34,0,0,1-1.1,1.82l-20.41,11.83c-.61.35-1.1.1-1.1-.55A2.34,2.34,0,0,1,181.64,225.24Z" style="fill:#25C2A0"></path><path d="M132.68,225l69.37-40c.61-.35,1.1-.1,1.1.55a2.34,2.34,0,0,1-1.1,1.82l-69.37,40c-.6.35-1.09.1-1.09-.56A2.37,2.37,0,0,1,132.68,225Z" style="fill:#25C2A0"></path><path d="M115.28,244.85l86.77-50.38c.61-.35,1.1-.1,1.1.55a2.34,2.34,0,0,1-1.1,1.82l-86.77,50.38c-.61.35-1.1.1-1.1-.55A2.34,2.34,0,0,1,115.28,244.85Z" style="fill:#25C2A0"></path><path d="M119.36,251.83l58-33.62c.6-.35,1.1-.1,1.1.55a2.36,2.36,0,0,1-1.1,1.82l-58,33.62c-.61.35-1.1.1-1.1-.55A2.34,2.34,0,0,1,119.36,251.83Z" style="fill:#ffa8a7"></path><path d="M115.28,235l11.47-6.63c.6-.34,1.09-.1,1.09.56a2.37,2.37,0,0,1-1.09,1.82l-11.47,6.62c-.61.35-1.1.1-1.1-.55A2.34,2.34,0,0,1,115.28,235Z" style="fill:#25C2A0"></path><path d="M105.84,174.11l50.2-29c.6-.35,1.09-.1,1.09.56a2.33,2.33,0,0,1-1.09,1.81l-50.2,29c-.61.35-1.1.1-1.1-.55A2.34,2.34,0,0,1,105.84,174.11Z" style="fill:#25C2A0"></path><path d="M105.84,174.11l50.2-29c.6-.35,1.09-.1,1.09.56a2.33,2.33,0,0,1-1.09,1.81l-50.2,29c-.61.35-1.1.1-1.1-.55A2.34,2.34,0,0,1,105.84,174.11Z" style="fill:#fff;opacity:0.6000000000000001"></path><path d="M105.84,183.58,116,177.72c.6-.35,1.09-.1,1.09.55a2.35,2.35,0,0,1-1.09,1.82L105.84,186c-.61.35-1.1.11-1.1-.55A2.35,2.35,0,0,1,105.84,183.58Z" style="fill:#25C2A0"></path><path d="M105.84,183.58,116,177.72c.6-.35,1.09-.1,1.09.55a2.35,2.35,0,0,1-1.09,1.82L105.84,186c-.61.35-1.1.11-1.1-.55A2.35,2.35,0,0,1,105.84,183.58Z" style="fill:#fff;opacity:0.6000000000000001"></path><path d="M105.84,193.07,116,187.21c.6-.35,1.09-.1,1.09.56a2.37,2.37,0,0,1-1.09,1.82l-10.14,5.86c-.61.35-1.1.1-1.1-.56A2.35,2.35,0,0,1,105.84,193.07Z" style="fill:#25C2A0"></path><path d="M105.84,193.07,116,187.21c.6-.35,1.09-.1,1.09.56a2.37,2.37,0,0,1-1.09,1.82l-10.14,5.86c-.61.35-1.1.1-1.1-.56A2.35,2.35,0,0,1,105.84,193.07Z" style="fill:#fff;opacity:0.6000000000000001"></path><path d="M105.84,202.57,116,196.7c.6-.35,1.09-.1,1.09.56a2.37,2.37,0,0,1-1.09,1.82l-10.14,5.86c-.61.35-1.1.1-1.1-.56A2.32,2.32,0,0,1,105.84,202.57Z" style="fill:#25C2A0"></path><path d="M105.84,202.57,116,196.7c.6-.35,1.09-.1,1.09.56a2.37,2.37,0,0,1-1.09,1.82l-10.14,5.86c-.61.35-1.1.1-1.1-.56A2.32,2.32,0,0,1,105.84,202.57Z" style="fill:#fff;opacity:0.6000000000000001"></path><path d="M105.84,212.06,116,206.2c.6-.35,1.09-.11,1.09.55a2.35,2.35,0,0,1-1.09,1.82l-10.14,5.86c-.61.35-1.1.1-1.1-.55A2.34,2.34,0,0,1,105.84,212.06Z" style="fill:#25C2A0"></path><path d="M105.84,212.06,116,206.2c.6-.35,1.09-.11,1.09.55a2.35,2.35,0,0,1-1.09,1.82l-10.14,5.86c-.61.35-1.1.1-1.1-.55A2.34,2.34,0,0,1,105.84,212.06Z" style="fill:#fff;opacity:0.6000000000000001"></path><path d="M160.28,142.66l13-7.48c.6-.35,1.09-.1,1.09.55a2.35,2.35,0,0,1-1.09,1.82l-13,7.48c-.6.35-1.09.1-1.09-.55A2.35,2.35,0,0,1,160.28,142.66Z" style="fill:#25C2A0"></path><path d="M160.28,142.66l13-7.48c.6-.35,1.09-.1,1.09.55a2.35,2.35,0,0,1-1.09,1.82l-13,7.48c-.6.35-1.09.1-1.09-.55A2.35,2.35,0,0,1,160.28,142.66Z" style="fill:#fff;opacity:0.6000000000000001"></path><path d="M121.5,212.42l63.31-36.49c.6-.35,1.09-.11,1.09.55a2.35,2.35,0,0,1-1.09,1.82L121.5,214.8c-.6.35-1.09.1-1.09-.56A2.37,2.37,0,0,1,121.5,212.42Z" style="fill:#ffa8a7"></path><path d="M105.84,231.19l96.21-55.69c.61-.35,1.1-.1,1.1.55a2.34,2.34,0,0,1-1.1,1.82l-96.21,55.69c-.61.35-1.1.11-1.1-.55A2.35,2.35,0,0,1,105.84,231.19Z" style="fill:#ffa8a7"></path><path d="M189.05,173.47l13-7.48c.61-.35,1.1-.1,1.1.56a2.35,2.35,0,0,1-1.1,1.82l-13,7.48c-.6.35-1.09.1-1.09-.56A2.37,2.37,0,0,1,189.05,173.47Z" style="fill:#ffa8a7"></path><path d="M122.28,174.09l50.2-29c.6-.35,1.09-.1,1.09.56a2.37,2.37,0,0,1-1.09,1.82l-50.2,29c-.61.35-1.1.1-1.1-.55A2.34,2.34,0,0,1,122.28,174.09Z" style="fill:#25C2A0"></path><path d="M122.28,174.09l50.2-29c.6-.35,1.09-.1,1.09.56a2.37,2.37,0,0,1-1.09,1.82l-50.2,29c-.61.35-1.1.1-1.1-.55A2.34,2.34,0,0,1,122.28,174.09Z" style="fill:#fff;opacity:0.6000000000000001"></path><path d="M176.72,142.64l13-7.48c.6-.35,1.1-.1,1.1.56a2.38,2.38,0,0,1-1.1,1.82l-13,7.48c-.6.34-1.09.1-1.09-.56A2.37,2.37,0,0,1,176.72,142.64Z" style="fill:#25C2A0"></path><path d="M176.72,142.64l13-7.48c.6-.35,1.1-.1,1.1.56a2.38,2.38,0,0,1-1.1,1.82l-13,7.48c-.6.34-1.09.1-1.09-.56A2.37,2.37,0,0,1,176.72,142.64Z" style="fill:#fff;opacity:0.6000000000000001"></path></g></g><g id="freepik--Character--inject-124"><g id="freepik--character--inject-124"><g id="freepik--Laptop--inject-124"><path d="M440.28,405.7,374.8,367.9a3.79,3.79,0,0,0-3.77,0L257.42,433.5a.84.84,0,0,0,0,1.45l66.1,38.17Z" style="opacity:0.2"></path><path d="M435.39,397.74v1.47a6.06,6.06,0,0,1-3,5.24l-105.83,61.1a6.09,6.09,0,0,1-6.05,0l-57.68-33.19a6.07,6.07,0,0,1-3-5.24v-2h0v0a.75.75,0,0,0,.38.66l63.35,36.59Z" style="fill:#37474f"></path><path d="M435.4,397.73l-62.75-36.22a3.62,3.62,0,0,0-3.6,0L260.19,424.37a.81.81,0,0,0,0,1.39l63.34,36.57Z" style="fill:#455a64"></path><polygon points="322.95 457 289.1 437.48 388.06 380.35 422.08 399.76 322.95 457" style="fill:#37474f"></polygon><polygon points="422.08 399.76 420.79 400.51 388.06 381.83 290.4 438.23 289.11 437.49 388.06 380.35 422.08 399.76" style="fill:#263238"></polygon><polygon points="306.31 402.7 306.94 403.06 323.52 412.64 353.02 395.61 353.64 395.26 336.43 385.32 306.31 402.7" style="fill:#263238"></polygon><polygon points="306.94 403.06 323.52 412.64 353.02 395.61 336.43 386.03 306.94 403.06" style="fill:#37474f"></polygon><path d="M323.53,462.33v4a6,6,0,0,0,3-.8l105.83-61.1a6.06,6.06,0,0,0,3-5.24v-1.48Z" style="fill:#263238"></path></g><path id="freepik--Light--inject-124" d="M449.76,321.85,323.53,462.33,205.32,394l-.08,0-1.15-.67c-9.51-6-11.66-20-14.44-43C187,328.16,186.6,303,187,286.17s5.19-30.69,18.39-36.76v0c7-6.43,15.9-10.11,24-13.32,3.22-7.33,3.1-15.65,2.38-26.36-.85-12.3,2-28.79,19.56-37.73s36.71-.39,46.72,9.08L448.3,320.73Z" style="fill:#25C2A0;opacity:0.1"></path><g id="freepik--character--inject-124"><g id="freepik--Arm--inject-124"><path d="M288,223.32c10.88.17,16.28,9.18,18.55,25.48,3.12,22.44,6.48,57,6.48,57s20.17,17.35,24.16,21.36,5.67,6.27,4.3,8.92L329.1,352.87c-3.43,1.79-7.49-.8-15.12-5.57s-18.86-13-23.29-16.41c-5.23-4-8.25-6.19-10.69-19s-13.51-67.29-13.51-67.29Z" style="fill:#37474f"></path><path d="M354.6,346.85c3.14,2.48,7.19,6.62,9.11,8.24s7.51,10.31,10.45,14.87,5,10.17,3.69,14.14-6.34,8.08-7.37,10.52-1.85,5.39-4.09,2.74-3.42-7.51-5.63-11.2-4.84-8.91-7.95-10.75-3.65.08-3.6,1.21c.06,1.32,2,4.75,2,7.88s-1.78,6.23-3.17,6.08-1.88-2.51-3.56-6.3c-1.82-4.1-2.83-4-3.27-8.73s.12-5.95-.37-10.33a17.92,17.92,0,0,0-.82-3.75,6.07,6.07,0,0,0-2.28-3l-1.54-1.07c1.61-7.57,6.21-12.38,14.12-14.14C350.29,343.24,351.45,344.38,354.6,346.85Z" style="fill:#ffbda7"></path><path d="M357.29,380.35h0l0-.06Z" style="fill:#25C2A0"></path><path d="M340.88,335.57s-4.43-.89-9.86,6-3.16,10.47-3.16,10.47L338,358.68c2.46-7.1,8.89-13.6,14.43-13.69Z" style="fill:#263238"></path><path d="M363.71,355.09c-1.92-1.62-6-5.76-9.11-8.24-.94-.73-1.69-1.34-2.29-1.85h.13l-10.92-8.9c1.37-2.65-.3-4.91-4.3-8.92s-24.16-21.36-24.16-21.36-3.36-34.57-6.48-57c-2.24-16.05-7.51-25-18.06-25.45h0c7.36.76,13.72,9.62,15.72,21.27s5.87,59.71,5.87,59.71a14.73,14.73,0,0,0-6.72,4.85s5.84-3.53,7.75-2.43,16.85,14.76,21,17.8,10,7.8,7.8,11.57c0,0-.75,1.2,4.28,4.85s13.55,10.92,19.2,15.73a41.37,41.37,0,0,1,6.59,6.86C367.49,359.8,364.89,356.09,363.71,355.09Z" style="fill:#25C2A0"></path></g><path id="freepik--Chest--inject-124" d="M229.39,236.11c-9.88,3.91-21,8.49-28.22,17.87s-8.4,78,.13,103.2,30.1,39.22,30.1,39.22l71.34-41.19s-10-19.75-9.05-35.36,5.93-94.5-8.15-96C265.28,223.24,229.39,236.11,229.39,236.11Z" style="fill:#455a64"></path><path d="M293.69,319.85c.54-8.83,2.37-38,1.3-61.83,0,0-.71,25.9-1.71,38.42s-3.7,25.53.86,42.34a78,78,0,0,0,6.73,17.52l1.87-1.09S292.73,335.46,293.69,319.85Z" style="fill:#25C2A0"></path><g id="freepik--Skull--inject-124"><path d="M257.44,340.25a1.16,1.16,0,0,1,.86-.37,3.14,3.14,0,0,0,2.46-1.19l16.21-17a4.73,4.73,0,0,0,1.11-2.57v0c.18-1.27.94-2.43,1.7-2.58.45-.08.78.35.86,1s.32.85.69.8.73.19.84.74a4,4,0,0,1-1,3.22,1.24,1.24,0,0,1-.77.39,4.73,4.73,0,0,0-3.14,1.64l-15.48,16.25a5.55,5.55,0,0,0-1.3,3v0c-.18,1.28-1,2.43-1.71,2.55-.45.08-.77-.37-.84-1.05s-.32-.87-.68-.82-.73-.22-.83-.77A4,4,0,0,1,257.44,340.25Z" style="fill:#fafafa"></path><path d="M277.15,307.31c0-1.56.91-2.72.91-7.31s-2.9-7.71-8.77-4.32-8.77,9.86-8.77,14.44.92,4.7.92,6.26-1.68,3.44-.92,5.21,2.15-.08,3,.19,1,1.09,1,3.11c0,0,1.29,1.36,4.78-.65a12.13,12.13,0,0,0,4.79-4.88,6.82,6.82,0,0,1,1-4.31c.8-1.2,2.2-.95,2.95-3.58S277.15,308.87,277.15,307.31Zm-13.09,10.5c-1.35-.1-1.47-2.39-1.09-3.66a4.68,4.68,0,0,1,2.59-2.9c1.81-.74,2.77.87,2.13,2.91S265,317.88,264.06,317.81Zm6.66.84c-.39.53-1.15.62-1.43-.43-.28,1.37-1,2.16-1.42,2.07s-.3-.77.05-2,1.37-3.56,1.37-3.56a10,10,0,0,1,1.38,2C271,317.54,271.1,318.11,270.72,318.65Zm3.81-6.88c-.94,1.15-3,1.83-3.63.53s.32-4,2.13-5.36c1.16-.87,2.22-.95,2.58-.09A5.76,5.76,0,0,1,274.53,311.77Z" style="fill:#fafafa"></path><path d="M281.14,326.57a1.6,1.6,0,0,0-.85.62,4,4,0,0,1-2.47,1.65l-16.21,1.7c-.57.06-1-.46-1.11-1.29h0c-.17-1.08-.94-1.36-1.69-.63a3.44,3.44,0,0,0-.86,2,2.8,2.8,0,0,1-.7,1.6,3.1,3.1,0,0,0-.83,1.71c-.21,1.27.24,2.2,1,2.05a1.46,1.46,0,0,0,.77-.5,5.42,5.42,0,0,1,3.15-2l15.48-1.63c.66-.07,1.13.52,1.29,1.47v0c.19,1.06,1,1.32,1.71.57a3.49,3.49,0,0,0,.85-2,2.72,2.72,0,0,1,.68-1.6,3.23,3.23,0,0,0,.82-1.72C282.37,327.31,281.9,326.4,281.14,326.57Z" style="fill:#fafafa"></path></g><g id="freepik--Head--inject-124"><path d="M239,264.67c13.85,12.94,31.55,14.78,31.55,14.78s-5.87-1.93-17.25-12.74c-8-7.6-11.82-24.63-13.38-34l-1.38.43-.46.14-1,.32-.38.12-1.21.39-.37.13-.85.27-.33.11-1,.32-.32.11-.62.21-.27.09-.7.24-.19.06-.44.15-.18.07-.4.14-.08,0-.21.08-.05,0-.08,0c-1.08.42-2.18.86-3.28,1.31C226.51,242.66,228.62,255,239,264.67Z" style="fill:#37474f"></path><path d="M270.52,279.45c4.6-4,5.66-16.72,11.85-22.33s25.72-20.5,30.56-31-9.23-12.79-25-7.08-28.89,17.15-30.44,30.6S259.89,275.4,270.52,279.45Z" style="fill:#37474f"></path><path d="M301.24,218.05c-.7,9.36-1.93,19.13-5.54,27.87-2.72,6.62-5.73,12.15-12.13,11.37a37.46,37.46,0,0,1-10.69-3.05l-2.28,9.59a72.1,72.1,0,0,1-.08,15.62c-5.27-2-11.35-6.59-16.39-11.68-.59-.6-1.18-1.2-1.74-1.81-3.64-3.95-6.55-8-7.9-11.27,0,0,.4-5.39.75-10.31.28-3.74.93-7.36.13-11-.87-4.1-2.47-8-3.37-12.07-.19-.89-.35-1.79-.48-2.69a34.88,34.88,0,0,1,8.41-28c7.43-8.1,19.3-12,30-9.41a28.91,28.91,0,0,1,15,9.48c3.07,3.63,4.5,7.55,5.95,12C302.48,207.43,301.62,213,301.24,218.05Z" style="fill:#ffbda7"></path><path d="M298.27,233.94c-1.69,10.69-6.44,19.25-10.15,21.67s-11.41.11-11.76,0a36.12,36.12,0,0,0,7.21,1.68c6.4.78,9.41-4.75,12.13-11.37,3.61-8.74,4.84-18.51,5.54-27.87.28-3.77.84-7.84.44-11.68L298.27,205C299.8,216.63,300,223.25,298.27,233.94Z" style="fill:#25C2A0"></path><path d="M270.6,263.83a72.1,72.1,0,0,1-.08,15.62c-5.27-2-11.35-6.59-16.39-11.68-.59-.6-1.18-1.2-1.74-1.81-3.64-3.95-6.55-8-7.9-11.27,0,0,.4-5.39.75-10.31.28-3.74.93-7.36.13-11-.05-.26-.12-.52-.17-.77l1.51-3.61a47.81,47.81,0,0,0,10,15.53c3.94,4.26,8.73,6.29,16.18,9.75Z" style="fill:#f0997a"></path><polygon points="291.89 226.57 291.16 227.77 289.85 244.63 298.99 243.15 291.89 226.57" style="fill:#f0997a"></polygon><path d="M293,229.18a1.19,1.19,0,0,0-2,.43c-.59,2.11-1,4.84-2.86,6.48-2.56,2.26-8.71,2.63-11.52,1.25-2.64-1.29-3-7.39-4.57-8.34-.64-.4-1.21-.27-1.45-1.73-.21-1.29.43-1.54,1.37-1.71,3.34-.61,14.57-2.53,16.51-2.21s1.42,3.09,3.25,3c1.61-.09,1.31-3,3.18-3.59a58.74,58.74,0,0,1,10.22-1.11c.87,0,1.52.09,1.41,1.36-.14,1.71-.88,1.71-1.34,1.83-.72.17-1.26,5.89-2.27,7.5-1.56,2.5-7.71,2.11-7.71,2.11Z" style="fill:#263238"></path><path d="M282.27,236.59c2.47-.25,4.4-.93,5.26-2.08,1.28-1.72,1.89-5.72,1.71-7.2s-.57-2.83-4.74-2.44-7.12.55-8.71,1.7-1.07,3.46-.55,5.18a9.12,9.12,0,0,0,2.16,4.09C278.17,236.47,280.15,236.8,282.27,236.59Z" style="fill:#25C2A0"></path><path d="M282.27,236.59c2.47-.25,4.4-.93,5.26-2.08,1.28-1.72,1.89-5.72,1.71-7.2s-.57-2.83-4.74-2.44-7.12.55-8.71,1.7-1.07,3.46-.55,5.18a9.12,9.12,0,0,0,2.16,4.09C278.17,236.47,280.15,236.8,282.27,236.59Z" style="fill:#fff;opacity:0.75"></path><path d="M295.88,224.11c-1.46.55-2.07,2.64-1.65,4.72s1.15,3.78,1.67,4.08c.92.54,4.29,0,5.35-.79s2-5.46,2.12-6.66c.13-1.47-.31-2.18-2-2.08A27.55,27.55,0,0,0,295.88,224.11Z" style="fill:#25C2A0"></path><path d="M295.88,224.11c-1.46.55-2.07,2.64-1.65,4.72s1.15,3.78,1.67,4.08c.92.54,4.29,0,5.35-.79s2-5.46,2.12-6.66c.13-1.47-.31-2.18-2-2.08A27.55,27.55,0,0,0,295.88,224.11Z" style="fill:#fff;opacity:0.75"></path><path d="M270.52,279.45c-8-3.09-14.47-21.68-7.67-35.79s28-22.88,40.74-23.24,9.87,4.38,9.34,5.72c0,0,4.33-3.86,2.22-15.11-2.16-11.52-7.09-20.45-17.1-29.93s-29.21-18-46.72-9.08-20.4,25.43-19.57,37.73c.73,10.7.85,19-2.37,26.36,0,0-2,9.58,8.9,23.34S270.52,279.45,270.52,279.45Z" style="fill:#455a64"></path></g><g id="freepik--arm--inject-124"><path d="M290,414.33s1.34.53,3.5,1.14c1.94.55,3.74,1.88,8.34,2.88,5.45,1.19,12.09-1.3,16.69-1.92s12.6.86,17,2.24,9-5.64,11.24-5,5.79-1.43,1.53-5-10.41-8.52-15.33-9.71a28.82,28.82,0,0,0-3.46-.77,37.25,37.25,0,0,0,4.85-1.39,8.71,8.71,0,0,0,3.93-3.1c.37-.57.6-1.45,0-1.84a1.15,1.15,0,0,0-.7-.2c-3.6.19-6.48-.13-9.76-.1a13.71,13.71,0,0,0-4.39.45c-1.31.47-2.61,1-3.89,1.53-5.79,2.56-11.07,4.86-19.67,3.59l-3.58-.94c-1.11,0-3.4,2.56-5,7.11C288.75,410.44,290,414.33,290,414.33Z" style="fill:#ffbda7"></path><path d="M327.28,395.8a16.23,16.23,0,0,0-6.45,1.59,36.15,36.15,0,0,1,8.65.78,37.25,37.25,0,0,0,4.85-1.39,9.08,9.08,0,0,0,3.58-2.62C335.47,396.13,330.41,395.85,327.28,395.8Z" style="fill:#f0997a"></path><path d="M205.36,249.42c6.1.68,16,16,18.14,32.71,2.23,17.54,5.74,77.77,5.74,77.77s25.36,12.41,35.62,17.17,18.8,8.8,19.17,13.2c-6.09,2.77-8.2,11.8-8.37,20.65-3.87,5.43-50.53-9.32-68.21-16-12.42-4.7-14.72-19.2-17.8-44.64C187,328.16,186.6,303,187,286.18S192.16,255.48,205.36,249.42Z" style="fill:#37474f"></path><path d="M284,390.27l13.4,6.2c-4.67,1.31-7.73,10.94-6.64,18.25l-15.13-3.8s-3.16-4.22.95-12.71S284,390.27,284,390.27Z" style="fill:#263238"></path><path d="M315.73,395.15h0a28.53,28.53,0,0,1-15.86,2l-2.45-.64-13.4-6.2c-.37-4.4-8.92-8.43-19.17-13.2s-35.62-17.17-35.62-17.17-3.51-60.23-5.74-77.77a60.93,60.93,0,0,0-4.36-15.91l-3-6.13c4,8.67,6.08,30.17,8.55,62s2.08,38.27,2.08,38.27a58.77,58.77,0,0,0-7.93,8.24s8.39-6.83,12.59-5.25,36,16.14,41.85,19.47,8.51,5.9,8,8.77c0,0,11.52,4.57,15,6.18S307.76,400.14,315.73,395.15Z" style="fill:#25C2A0"></path></g></g><path d="M325.23,463.22a7.19,7.19,0,0,0,6.18-.48l105.36-60.83a7.17,7.17,0,0,0,3.48-5l11.54-68.78a7.91,7.91,0,0,0,.09-1.18,7.13,7.13,0,0,0-2.12-5.09L340.27,385.07a5.31,5.31,0,0,0-2.57,3.71Z" style="fill:#37474f"></path><path d="M323.53,462.33l.72.41a8.09,8.09,0,0,0,1,.48l12.47-74.44a5.31,5.31,0,0,1,2.57-3.71l109.49-63.22a7.07,7.07,0,0,0-1.46-1.12L338.59,384.07a5.34,5.34,0,0,0-2.58,3.71Z" style="fill:#455a64"></path><path d="M338.72,386.47l-1.7-1a5.32,5.32,0,0,0-1,2.29l-12.48,74.55.72.41a8.09,8.09,0,0,0,1,.48l12.47-74.44A5.3,5.3,0,0,1,338.72,386.47Z" style="fill:#263238"></path><path d="M384.57,399.72c.77-4.6,5.53-10.72,10.62-13.66s8.6-1.59,7.82,3-5.52,10.73-10.62,13.67S383.8,404.33,384.57,399.72Z" style="fill:#25C2A0"></path></g></g></svg>